<svg width="77" height="43" viewBox="0 0 77 43" fill="none" xmlns="http://www.w3.org/2000/svg">
<path fill-rule="evenodd" clip-rule="evenodd" d="M8.38461 24.3008H8.15385L8 24.2256H7.76923H7.61538L7.15385 24.1504L6.76923 24.0752H6.53846H6.30769L6.15385 24H5.92308H5.69231H5.53846H5.30769H5.07692H4.92308H4.69231H4.46154H4.23077L4 24.0752H3.76923H3.53846L3.38462 24.1504H3.15385H2.92308L2.69231 24.2256L2.46154 24.3008L2.30769 24.3759L2.07692 24.4511H1.92308L1.69231 24.6015L1.53846 24.6767L1.30769 24.7519L1.15385 24.8271L1 24.9774L0.846154 25.1278L0.692308 25.203L0.615385 25.3534L0.461538 25.5038L0.384615 25.6541L0.307692 25.8797L0.230769 26.0301L0.153846 26.2556L0.0769231 26.406L0 26.6316V26.8571V27.1579V27.4586L0.0769231 27.7594L0.153846 28.0602L0.230769 28.3609L0.307692 28.5865L0.461538 28.812L0.615385 28.9624L0.846154 29.1128L1 29.3383L1.23077 29.4135L1.46154 29.5639L1.61538 29.6391L1.84615 29.7895L2.15385 29.8647L2.38462 29.9399L2.61538 30.015L3.53846 30.2406L4.38462 30.391L4.53846 30.4662H4.76923L4.84615 30.5414L5 30.6165L5.07692 30.6917L5.15385 30.8421L5.23077 30.9173V30.9925V31.0677V31.1429H5.15385V31.218V31.2932H5.07692V31.3684H5L4.92308 31.4436H4.84615V31.5188H4.76923H4.69231L4.53846 31.594H4.46154L4.30769 31.6692H4.15385H4H3.84615H3.69231H3.53846H3.30769H3.07692H2.84615H2.61538L2.46154 31.594H2.23077H2L1.76923 31.5188H1.53846L1.30769 31.4436L1.07692 31.3684H0.923077L0.692308 31.2932L0.461538 31.218L0.307692 31.1429L0.0769231 31.0677V33.5489L0.384615 33.6241L0.615385 33.6993H0.846154L1.15385 33.7744L1.38462 33.8496H1.61538L1.84615 33.9248H2.15385H2.38462L2.61538 34H2.84615H3.15385H3.38462H3.69231H3.92308H4.15385H4.38462H4.61538H4.84615H5H5.23077L5.46154 33.9248H5.69231L5.84615 33.8496H6.07692L6.30769 33.7744H6.46154L6.69231 33.6993L6.84615 33.6241L7.07692 33.5489L7.23077 33.4737L7.46154 33.3985L7.61538 33.2481L7.76923 33.1729L7.92308 33.0977L8.07692 32.9474L8.23077 32.797L8.30769 32.6466L8.46154 32.5714L8.61539 32.3459L8.69231 32.1955L8.76923 32.0451L8.84615 31.8947L8.92308 31.6692V31.4436L9 31.218V30.9925V30.7669V30.4662V30.1654L8.92308 29.8647L8.76923 29.5639L8.69231 29.3383L8.53846 29.1128L8.38461 28.9624L8.23077 28.812L8 28.6617L7.84615 28.5113L7.61538 28.3609L7.38462 28.2857L7.15385 28.1353L6.92308 28.0602L6.69231 27.985L6.38462 27.9098L5.46154 27.7594L4.61538 27.609L4.46154 27.5338L4.30769 27.4586L4.15385 27.3835L4 27.3083L3.92308 27.2331L3.84615 27.1579V27.0827V26.9323V26.8571V26.782V26.7068H3.92308V26.6316H4V26.5564H4.07692L4.15385 26.4812H4.23077H4.30769V26.406H4.38462H4.53846H4.69231L4.76923 26.3308H4.92308H5.23077H5.46154H5.61539H5.84615H6.07692H6.23077L6.46154 26.406H6.61539H6.84615L7 26.4812H7.15385L7.38462 26.5564H7.53846L7.69231 26.6316H7.92308L8.07692 26.7068L8.23077 26.782H8.38461V24.3008Z" fill="white"/>
<path fill-rule="evenodd" clip-rule="evenodd" d="M9 33L12.375 24H17.55L21 33H17.1L14.925 25.9535L12.675 33H9Z" fill="white"/>
<path fill-rule="evenodd" clip-rule="evenodd" d="M23.9722 29.037V28.8889V28.6667V28.4444V28.2222V28.1481V28.0741V27.9259V27.8519V27.7778V27.6296V27.5556L24.0486 27.4815L24.125 27.4074L24.2014 27.3333L24.2778 27.2593L24.3542 27.1852L24.4306 27.1111L24.5069 27.037L24.5833 26.963L24.6597 26.8889L24.7361 26.8148L24.8125 26.7407L24.8889 26.6667L24.9653 26.5926H25.0417H25.1181H25.2708H25.4236H25.5764H25.7292H25.8819H25.9583L26.0347 26.6667L26.1111 26.7407L26.1875 26.8148L26.2639 26.8889L26.3403 26.963L26.4167 27.037L26.4931 27.1111L26.5694 27.1852L26.6458 27.2593L26.7222 27.3333L26.7986 27.4074L26.875 27.4815L26.9514 27.5556V27.6296V27.7778V27.8519V27.9259V28.0741V28.1481V28.2222V28.4444V28.6667V28.8889V29.037V29.2593V29.4815V29.7037V29.9259V30.0741V30.1481V30.2963V30.3704V30.4444V30.5185V30.5926V30.6667L26.875 30.7407L26.7986 30.8148L26.7222 30.8889L26.6458 30.963L26.5694 31.037L26.4931 31.2593L26.4167 31.3333L26.3403 31.4074L26.2639 31.4815L26.1875 31.5556L26.1111 31.6296L26.0347 31.7037H25.9583H25.8056H25.6528H25.5H25.3472H25.1944H25.1181H25.0417L24.9653 31.6296L24.8889 31.5556L24.7361 31.4815L24.6597 31.4074L24.5833 31.3333L24.5069 31.2593L24.4306 31.1852L24.3542 31.1111L24.2778 31.037L24.2014 30.963L24.125 30.8889L24.0486 30.8148L23.9722 30.7407V30.6667V30.5926V30.5185V30.4444V30.2963V30.2222V30.0741V29.8519V29.6296V29.4074V29.037ZM31 29.037V28.7407V28.4444V28.1481L30.8472 27.8519V27.6296L30.7708 27.4074L30.6944 27.1852L30.6181 26.963L30.5417 26.7407L30.4653 26.5185L30.3125 26.2963L30.1597 26.0741L30.0069 25.8519L29.8542 25.7037L29.7014 25.5556L29.5486 25.3333L29.3194 25.1852L29.0903 25.037L28.8611 24.8889L28.6319 24.7407L28.4028 24.5926H28.25L28.0208 24.5185L27.7917 24.3704L27.5625 24.2963L27.3333 24.2222L27.0278 24.1481L26.7222 24.0741L26.4167 24H26.1111H25.8056H25.5H25.1944H24.8889H24.5833L24.2778 24.0741L23.9722 24.2222L23.6667 24.2963L23.4375 24.3704L23.2083 24.4444L22.9792 24.5185L22.6736 24.5926L22.4444 24.6667L22.2153 24.8148L21.9861 24.963L21.7569 25.1111L21.5278 25.2593L21.4514 25.3333L21.2986 25.4815L21.1458 25.6296L20.9931 25.7778L20.8403 26.0741L20.6875 26.2963L20.5347 26.5185L20.4583 26.7407L20.3819 26.963L20.3056 27.1852L20.2292 27.4074L20.1528 27.6296L20.0764 27.9259L20 28.2222V28.5185V28.8148V29.1111V29.4074V29.7037V30L20.0764 30.2963L20.1528 30.5926L20.2292 30.8148L20.3056 31.037L20.3819 31.2593L20.4583 31.4815L20.5347 31.7037L20.6875 31.9259L20.8403 32.1481L20.9931 32.3704L21.1458 32.5185L21.2986 32.6667L21.4514 32.8148L21.6042 32.963L21.8333 33.1111L22.0625 33.2593L22.2917 33.4074L22.5208 33.4815L22.75 33.5556L22.9792 33.6296L23.2083 33.7037L23.4375 33.7778L23.6667 33.8519L23.9722 33.9259L24.2778 34H24.5833H24.8889H25.1944H25.5H25.8056H26.1111H26.4167H26.7222L27.0278 33.9259L27.3333 33.8519L27.5625 33.7778L27.7917 33.7037L28.0208 33.6296L28.25 33.5556L28.4792 33.4815L28.7083 33.4074L28.9375 33.2593L29.1667 33.1111L29.3958 32.963L29.5486 32.8148L29.7014 32.6667L29.8542 32.5185L30.0069 32.3704L30.1597 32.1481L30.3125 31.9259L30.4653 31.7037L30.5417 31.4815L30.6181 31.2593L30.6944 31.037L30.7708 30.8148L30.8472 30.5926L30.9236 30.2963L31 30V29.7037V29.4074V29.037Z" fill="white"/>
<path fill-rule="evenodd" clip-rule="evenodd" d="M42 33H52V30.3488H45.876V24H42V33Z" fill="white"/>
<path fill-rule="evenodd" clip-rule="evenodd" d="M55.4884 24H52V30.0305V30.2595L52.0698 30.4886V30.7939L52.1395 31.0229V31.2519L52.2093 31.4809L52.2791 31.6336L52.3488 31.8626L52.4884 32.0153L52.5581 32.2443L52.6279 32.3969L52.7674 32.5496L52.907 32.7023L53.0465 32.855L53.186 33.0076L53.3256 33.084L53.4651 33.2366L53.6046 33.313L53.814 33.3893L53.9535 33.542L54.1628 33.6183L54.3721 33.6947L54.5116 33.771H54.7209L54.9302 33.8473L55.1395 33.9237H55.3488L55.5581 34H55.8372H56.0465H56.2558H56.5349H56.7442H57.0233H57.2326H57.5116L57.7209 33.9237H57.9302L58.1395 33.8473H58.3488L58.5581 33.771L58.7674 33.6947L58.9767 33.6183L59.1163 33.542L59.3256 33.4657L59.4651 33.313L59.6047 33.2366L59.7442 33.084L59.9535 33.0076L60.093 32.855L60.1628 32.7023L60.3023 32.5496L60.4419 32.3969L60.5116 32.1679L60.5814 32.0153L60.7209 31.7863L60.7907 31.5573L60.8605 31.4046V31.0992L60.9302 30.8702L61 30.6412V30.3359V30.1069V29.8015V24H57.6512V29.8779V30.0305V30.1832L57.5814 30.3359V30.5649V30.6412V30.7176L57.5116 30.7939V30.8702V30.9466H57.4419V31.0229L57.3721 31.0992V31.1756H57.3023V31.2519H57.2326L57.1628 31.3282L57.093 31.4046H57.0233H56.9535H56.8837L56.814 31.4809H56.7442H56.6744H56.6046H56.5349H56.4651H56.3953H56.3256H56.2558L56.186 31.4046H56.1163H56.0465V31.3282H55.9767H55.907V31.2519H55.8372L55.7674 31.1756V31.0992H55.6977V31.0229V30.9466L55.6279 30.8702V30.7939L55.5581 30.7176V30.6412V30.5649V30.4886L55.4884 30.3359V30.1832V30.0305V29.8779V24Z" fill="white"/>
<path d="M67 24H63V33H67V24Z" fill="white"/>
<path fill-rule="evenodd" clip-rule="evenodd" d="M68.1513 24V26.3023H72.7647L68 30.2791V33H77V30.6279H72.2353L76.8487 26.7209V24H68.1513Z" fill="white"/>
<path d="M18 21H12V23H18V21Z" fill="white"/>
<path fill-rule="evenodd" clip-rule="evenodd" d="M42 34H52V36.6719H45.876V43H42V34Z" fill="white"/>
<path fill-rule="evenodd" clip-rule="evenodd" d="M41 33H31V30.3488H37.2016V24H41V33Z" fill="white"/>
<path fill-rule="evenodd" clip-rule="evenodd" d="M41 34H31V36.6719H37.2016V43H41V34Z" fill="white"/>
<path fill-rule="evenodd" clip-rule="evenodd" d="M45.5945 15.9195C44.3093 15.3432 43.2509 15.0551 42.268 15.0551C41.7388 15.0551 41.2852 15.1271 40.9828 15.2712C40.6804 15.4153 40.4536 15.6314 40.4536 15.8475C40.4536 16.0636 40.6048 16.2076 40.9828 16.3517C41.3608 16.4958 41.7388 16.5678 42.268 16.5678C43.3265 16.6398 44.4605 16.3517 45.5945 15.9195ZM46.5017 15.9915C47.3333 16.4237 48.2405 16.6398 49.1478 16.6398C50.5086 16.6398 51.7182 16.2076 52.8522 15.2712C54.4399 13.9746 55.5739 12.2458 56.2543 10.0127C56.6323 8.78814 56.8591 7.56356 56.8591 6.55509C56.7835 5.76271 56.7079 5.04237 56.4811 4.32203C55.9519 4.97034 55.4227 5.61864 54.9691 6.26695C54.5155 6.91525 53.8351 7.92373 53.0034 9.29237C52.1718 10.661 51.4158 11.7415 50.8866 12.4619C50.2818 13.1822 49.6014 13.8305 48.7698 14.4788C48.3162 14.839 47.5601 15.3432 46.5017 15.9915ZM56.7835 4.10593C57.0103 4.8983 57.1615 5.61864 57.1615 6.33898C57.1615 7.49153 56.9347 8.7161 56.5567 9.94068C55.8007 12.3178 54.5911 14.1907 52.9278 15.5593C51.7938 16.4237 50.5842 16.928 49.1478 16.928C48.6186 16.928 48.1649 16.8559 47.7869 16.7839C47.4089 16.7119 46.8041 16.4958 46.0481 16.2076C44.6873 16.7119 43.4777 17 42.268 17C41.7388 17 41.2096 16.928 40.8316 16.7839C40.6048 16.7119 40.378 16.5678 40.2268 16.4237C40.0756 16.2076 40 16.0636 40 15.8475C40 15.4873 40.2268 15.1992 40.6048 14.9831C40.9828 14.7669 41.5876 14.6949 42.268 14.6949C43.3265 14.6949 44.6117 15.0551 46.0481 15.7754C46.9553 15.1992 47.8625 14.4068 48.6186 13.5424C49.1478 12.9661 49.5258 12.4619 49.8282 12.0297C50.1306 11.5975 50.9622 10.4449 52.2474 8.5C53.3058 6.98729 54.5911 5.47458 56.2543 3.96186C55.8763 3.09746 55.4227 2.44915 54.9691 2.01695C53.9863 1.08051 52.6254 0.576271 50.9622 0.576271C48.7698 0.576271 46.8797 1.29661 45.3677 2.73729C44.6117 3.45763 44.0069 4.25 43.5533 5.11441C43.1753 5.90678 42.9485 6.69915 42.9485 7.49153C42.9485 8.2839 43.1753 8.9322 43.7045 9.43644C44.1581 9.86864 44.8385 10.1568 45.7457 10.1568C46.9553 10.1568 48.0893 9.72458 49.1478 8.86017C50.6598 7.63559 51.6426 5.97881 52.2474 3.8178L52.4742 3.88983C52.2474 5.33051 51.7938 6.55509 51.0378 7.63559C50.2818 8.7161 49.3746 9.50847 48.2406 10.0847C47.4845 10.4449 46.6529 10.661 45.7457 10.661C44.6117 10.661 43.7801 10.3008 43.1753 9.58051C42.646 8.9322 42.4192 8.13983 42.4192 7.27542C42.4192 6.12288 42.7973 4.97034 43.4777 3.8178C44.2337 2.66525 45.2165 1.80085 46.4261 1.15254C47.7113 0.288136 49.0722 0 50.5086 0C52.4742 0 54.0619 0.576271 55.1959 1.65678C55.6495 2.08898 56.1031 2.73729 56.5567 3.6017C57.5395 2.80932 58.4467 2.16102 59.2784 1.72881L59.354 2.01695C58.5979 2.52119 57.6907 3.16949 56.7835 4.10593ZM60.1856 0.36017H62V2.16102C62 2.88136 61.8488 3.38559 61.622 3.6017C61.3952 3.8178 60.9416 3.96186 60.3368 4.0339C60.2612 4.0339 60.1856 4.0339 60.0344 4.0339V3.16949C60.3368 3.16949 60.5636 3.09746 60.7148 2.95339C60.866 2.80932 60.9416 2.59322 60.9416 2.23305H60.2612V0.36017H60.1856Z" fill="white"/>
<path d="M29.8452 16V6H37V7.66667H31.8787V10.1304H36.7741V11.6522H31.8787V14.3333H37V16H29.8452ZM24.8745 16H19.4519V6H24.4226C26.2301 6 27.4351 6.50725 27.9623 7.44928C28.2636 8.02899 28.4142 8.82609 28.4142 9.91304V12.0145C28.4142 13.7536 27.887 14.9855 26.8326 15.5652C26.6067 15.7101 26.3054 15.7826 25.8536 15.8551C25.6276 15.9275 25.251 16 24.8745 16ZM24.4979 14.3333C24.8745 14.3333 25.251 14.2609 25.477 14.1884C25.7029 14.1159 25.9289 13.8986 26.1548 13.6087C26.4561 13.2464 26.5314 12.5942 26.5314 11.7246V11.0725V9.98551C26.5314 9.4058 26.4561 8.97101 26.3808 8.6087C26.3054 8.31884 26.0795 8.02899 25.7782 7.88406C25.477 7.73913 24.9498 7.66667 24.272 7.66667H21.41V14.3333H24.4979ZM10.8661 16V6H18.0209V7.66667H12.8996V10.1304H17.795V11.6522H12.8996V14.3333H18.0209V16H10.8661ZM6.04603 6C7.40167 6 8.30544 6.21739 8.75732 6.72464C9.2092 7.15942 9.35983 7.88406 9.35983 8.89855C9.35983 9.98551 9.2092 10.7101 8.90795 11.0725C8.60669 11.3623 8.15481 11.5797 7.5523 11.7246V11.7971C8.15481 11.8696 8.60669 12.087 8.90795 12.3768C9.13389 12.7391 9.28452 13.3188 9.28452 14.0435V15.8551H7.32636V14.4783C7.32636 14.1159 7.32636 13.8261 7.25105 13.6087C7.25105 13.3913 7.10042 13.1739 6.94979 13.029C6.79916 12.8841 6.64854 12.8116 6.42259 12.7391C6.19665 12.6667 5.97071 12.6667 5.66946 12.6667H5.51883H2.95816V16H1V6H6.04603ZM5.74477 7.66667H2.95816V11.0725H5.82008C6.19665 11.0725 6.42259 11.0725 6.64854 11C6.79916 10.9275 7.0251 10.8551 7.17573 10.7101C7.40167 10.4928 7.47699 9.98551 7.47699 9.33333C7.47699 8.68116 7.40167 8.24638 7.25105 8.02899C7.10042 7.88406 6.94979 7.81159 6.72385 7.73913C6.42259 7.66667 6.12134 7.66667 5.74477 7.66667Z" fill="white"/>
<path d="M73.6154 6.07143C75 6.07143 75.9231 6.28571 76.3846 6.78571C76.8462 7.21429 77 7.92857 77 8.92857C77 10 76.8462 10.7143 76.5385 11.0714C76.2308 11.3571 75.7692 11.5714 75.1538 11.7143V11.7857C75.7692 11.8571 76.2308 12.0714 76.5385 12.3571C76.7692 12.7143 76.9231 13.2857 76.9231 14V15.7857H74.8462V14.4286C74.8462 14.0714 74.8462 13.7857 74.7692 13.5714C74.7692 13.3571 74.6154 13.1429 74.4615 13C74.3077 12.8571 74.1538 12.7857 73.9231 12.7143C73.6923 12.6429 73.4615 12.6429 73.1538 12.6429H72.9231H70.3077V15.9286H68.3077V6.07143H73.6154ZM73.3077 7.71429H70.4615V11.0714H73.3846C73.7692 11.0714 74 11.0714 74.2308 11C74.3846 10.9286 74.6154 10.8571 74.7692 10.7143C75 10.5 75.0769 10 75.0769 9.35714C75.0769 8.71429 75 8.28571 74.8462 8.07143C74.6923 7.92857 74.5385 7.85714 74.3077 7.78571C74 7.71429 73.6923 7.71429 73.3077 7.71429ZM62.4615 6C63 6 63.5385 6 64 6.07143C64.4615 6.14286 64.9231 6.21429 65.3846 6.35714C65.8462 6.5 66.1538 6.71429 66.3846 7C66.4615 7.14286 66.6154 7.35714 66.7692 7.78571C66.9231 8.14286 67 8.71429 67 9.5V12.6429C67 13.2143 66.9231 13.7143 66.8462 14C66.6923 14.3571 66.5385 14.6429 66.3077 14.9286C66.0769 15.2143 65.6923 15.5 65.3077 15.6429C64.8462 15.7857 64.3846 15.8571 63.9231 15.9286C63.4615 15.9286 62.9231 16 62.2308 16C61.4615 16 60.7692 15.9286 60.1538 15.8571C59.6154 15.7143 59.1538 15.5 58.7692 15.1429C58.2308 14.6429 58 13.7143 58 12.3571V9.64286C58 9.07143 58.0769 8.57143 58.1538 8.14286C58.2308 7.71429 58.3846 7.28571 58.6154 7C58.8462 6.71429 59.1538 6.5 59.6154 6.35714C60.0769 6.21429 60.4615 6.14286 60.9231 6.07143C61.3846 6 61.9231 6 62.4615 6ZM62.5385 7.64286C61.8462 7.64286 61.3846 7.71429 61 7.78571C60.6154 7.85714 60.3846 8.07143 60.3077 8.28571C60.1538 8.57143 60.0769 9 60 9.57143C60 9.64286 60 9.71429 60 9.85714V12.2143C60 13 60.0769 13.5714 60.3077 13.8571C60.4615 14.0714 60.6923 14.2143 61 14.2857C61.3077 14.3571 61.7692 14.3571 62.4615 14.4286C63.0769 14.4286 63.5385 14.3571 63.8462 14.2857C64.1538 14.2143 64.3846 14.0714 64.6154 13.8571C64.6923 13.7143 64.7692 13.5 64.8462 13.2143C64.9231 12.9286 64.9231 12.6429 64.9231 12.3571V9.71429V9.42857C64.9231 8.78571 64.7692 8.35714 64.5385 8.07143C64.3077 7.85714 63.9231 7.71429 63.4615 7.64286C63.2308 7.64286 62.8462 7.64286 62.5385 7.64286Z" fill="white"/>
</svg>
